#tb 0: 1/25
#media_type 0: video
#codec_id 0: rawvideo
#dimensions 0: 352x288
#sar 0: 0/1
0,          0,          0,        1,   405504, 0x861e42c5
0,          1,          1,        1,   405504, 0xf922bfed
0,          2,          2,        1,   405504, 0x8c3eaae9
0,          3,          3,        1,   405504, 0xfede3ea8
0,          4,          4,        1,   405504, 0x627b24dd
0,          5,          5,        1,   405504, 0x7033f0c9
0,          6,          6,        1,   405504, 0xc63bb5af
0,          7,          7,        1,   405504, 0xa8e3567a
0,          8,          8,        1,   405504, 0x113ac88a
0,          9,          9,        1,   405504, 0x7570d004
0,         10,         10,        1,   405504, 0xb337c666
0,         11,         11,        1,   405504, 0xb3544e9c
0,         12,         12,        1,   405504, 0xc3dc6dc1
0,         13,         13,        1,   405504, 0x2cac5fad
0,         14,         14,        1,   405504, 0xd5833c8a
0,         15,         15,        1,   405504, 0xa263e3ea
0,         16,         16,        1,   405504, 0x6f4633a3
0,         17,         17,        1,   405504, 0x7259f75d
0,         18,         18,        1,   405504, 0xf78025c7
0,         19,         19,        1,   405504, 0xb53660da
0,         20,         20,        1,   405504, 0x6057e421
0,         21,         21,        1,   405504, 0xf2a26905
0,         22,         22,        1,   405504, 0x316f7a79
0,         23,         23,        1,   405504, 0x896e4552
0,         24,         24,        1,   405504, 0x3dfcee7d
0,         25,         25,        1,   405504, 0xeb11c71d
0,         26,         26,        1,   405504, 0x9d2f87a1
0,         27,         27,        1,   405504, 0xf5e17551
0,         28,         28,        1,   405504, 0xf839857c
0,         29,         29,        1,   405504, 0x9bc932eb
0,         30,         30,        1,   405504, 0x2d6d6dcc
0,         31,         31,        1,   405504, 0x000403a1
0,         32,         32,        1,   405504, 0x04a33290
0,         33,         33,        1,   405504, 0x58d2c291
0,         34,         34,        1,   405504, 0xf2993a54
0,         35,         35,        1,   405504, 0x442e14ef
0,         36,         36,        1,   405504, 0x431de733
0,         37,         37,        1,   405504, 0x8919ca66
0,         38,         38,        1,   405504, 0x43c81564
0,         39,         39,        1,   405504, 0x4a074597
0,         40,         40,        1,   405504, 0x693edbb4
0,         41,         41,        1,   405504, 0x4022f638
0,         42,         42,        1,   405504, 0x3928a003
0,         43,         43,        1,   405504, 0x730b0e31
0,         44,         44,        1,   405504, 0xa916647c
0,         45,         45,        1,   405504, 0x82005b65
0,         46,         46,        1,   405504, 0x8f3b3b33
0,         47,         47,        1,   405504, 0xf753ca40
0,         48,         48,        1,   405504, 0x9f741b65
0,         49,         49,        1,   405504, 0x6b11258e
